<svg xmlns="http://www.w3.org/2000/svg" viewBox="0 0 24 24">
  <path fill="#000000"
        d="M12,4C10.343,4 9,5.343 9,7C9,8.657 10.343,10 12,10C13.657,10 15,8.657 15,7C15,5.343 13.657,4 12,4ZM7,7C7,4.239 9.239,2 12,2C14.762,2 17,4.239 17,7C17,9.761 14.762,12 12,12C9.239,12 7,9.761 7,7ZM12,15C8.556,15 5.737,17.679 5.514,21.066C5.478,21.617 5.002,22.034 4.451,21.998C3.9,21.962 3.483,21.485 3.519,20.934C3.81,16.503 7.496,13 12,13C12.384,13 12.762,13.025 13.132,13.075C13.68,13.148 14.064,13.651 13.991,14.198C13.918,14.746 13.416,15.13 12.868,15.057C12.585,15.02 12.295,15 12,15ZM18,14C18.552,14 19,14.448 19,15L19,17H21C21.552,17 22,17.448 22,18C22,18.552 21.552,19 21,19H19V21C19,21.552 18.553,22 18,22C17.448,22 17,21.552 17,21V19H15C14.448,19 14,18.552 14,18C14,17.448 14.448,17 15,17H17L17,15C17,14.448 17.448,14 18,14Z"/>
</svg>
